<?xml version="1.0" encoding="UTF-8"?>
<!DOCTYPE svg PUBLIC "-//W3C//DTD SVG 1.1//EN" "http://www.w3.org/Graphics/SVG/1.1/DTD/svg11.dtd">
<svg xmlns="http://www.w3.org/2000/svg" version="1.1" width="727px" height="662px" style="shape-rendering:geometricPrecision; text-rendering:geometricPrecision; image-rendering:optimizeQuality; fill-rule:evenodd; clip-rule:evenodd" xmlns:xlink="http://www.w3.org/1999/xlink">
<g><path style="opacity:0.502" fill="#ba4249" d="M 134.5,67.5 C 134.5,67.1667 134.5,66.8333 134.5,66.5C 166.168,66.3334 197.835,66.5 229.5,67C 232.547,67.5158 234.88,69.0158 236.5,71.5C 234.585,71.7845 232.919,71.4511 231.5,70.5C 230.411,68.8829 228.744,68.0496 226.5,68C 196.502,67.5 166.502,67.3334 136.5,67.5C 135.833,67.5 135.167,67.5 134.5,67.5 Z"/></g>
<g><path style="opacity:0.502" fill="#b73f46" d="M 586.5,67.5 C 586.167,67.5 585.833,67.5 585.5,67.5C 584.5,67.5 583.5,67.5 582.5,67.5C 551.475,67.1969 520.475,67.5302 489.5,68.5C 490.263,67.7321 491.263,67.2321 492.5,67C 524.003,66.1693 555.336,66.336 586.5,67.5 Z"/></g>
<g><path style="opacity:1" fill="#c31524" d="M 136.5,67.5 C 166.502,67.3334 196.502,67.5 226.5,68C 228.744,68.0496 230.411,68.8829 231.5,70.5C 201.191,69.1899 170.857,69.1899 140.5,70.5C 142.401,71.935 142.734,73.6017 141.5,75.5C 143.104,77.1789 143.771,79.1789 143.5,81.5C 139.482,78.1414 137.148,73.808 136.5,68.5C 136.5,68.1667 136.5,67.8333 136.5,67.5 Z"/></g>
<g><path style="opacity:1" fill="#d30e1a" d="M 582.5,70.5 C 581.969,72.5441 580.802,74.2107 579,75.5C 577.193,81.1283 575.36,86.795 573.5,92.5C 573.167,92.5 572.833,92.5 572.5,92.5C 567.002,102.834 562.002,113.501 557.5,124.5C 554.265,130.633 550.765,136.633 547,142.5C 546.667,144.5 546.333,146.5 546,148.5C 543.208,154.412 540.708,160.412 538.5,166.5C 536.455,167.923 535.455,169.923 535.5,172.5C 534.624,172.369 533.957,172.702 533.5,173.5C 530.467,178.372 527.633,183.372 525,188.5C 523.776,193.937 522.276,199.271 520.5,204.5C 519.02,207.415 517.02,210.082 514.5,212.5C 510.366,216.103 508.199,220.77 508,226.5C 505.056,228.372 503.889,231.039 504.5,234.5C 501.654,234.809 500.154,236.475 500,239.5C 497.479,242.315 495.813,241.982 495,238.5C 491.668,242.327 487.834,245.661 483.5,248.5C 482.571,247.311 482.238,245.978 482.5,244.5C 482.5,242.833 482.5,241.167 482.5,239.5C 486.835,237.749 491.501,236.583 496.5,236C 497.893,234.829 498.727,233.329 499,231.5C 500.342,232.902 501.176,232.569 501.5,230.5C 501.833,229.167 502.167,227.833 502.5,226.5C 501.5,224.833 500.5,223.167 499.5,221.5C 501.526,219.557 501.526,217.391 499.5,215C 499.957,214.586 500.291,214.086 500.5,213.5C 497.232,212.513 493.898,212.18 490.5,212.5C 490.5,213.5 490.5,214.5 490.5,215.5C 493.167,215.5 495.833,215.5 498.5,215.5C 498.5,217.167 498.5,218.833 498.5,220.5C 487.833,220.5 477.167,220.5 466.5,220.5C 466.5,231.167 466.5,241.833 466.5,252.5C 461.167,252.5 455.833,252.5 450.5,252.5C 450.5,263.167 450.5,273.833 450.5,284.5C 445.167,284.5 439.833,284.5 434.5,284.5C 434.5,281.833 434.5,279.167 434.5,276.5C 433.5,276.5 432.5,276.5 431.5,276.5C 431.5,281.833 431.5,287.167 431.5,292.5C 430.167,292.5 428.833,292.5 427.5,292.5C 427.5,295.167 427.5,297.833 427.5,300.5C 429.5,300.5 431.5,300.5 433.5,300.5C 435.26,299.246 435.593,304.579 434.5,316.5C 429.167,316.5 423.833,316.5 418.5,316.5C 418.5,327.167 418.5,337.833 418.5,348.5C 421.167,348.5 423.833,348.5 426.5,348.5C 426.5,353.833 426.5,359.167 426.5,364.5C 421.167,364.5 415.833,364.5 410.5,364.5C 410.5,361.833 410.5,359.167 410.5,356.5C 407.833,356.5 405.167,356.5 402.5,356.5C 402.5,353.833 402.5,351.167 402.5,348.5C 394.5,348.5 386.5,348.5 378.5,348.5C 378.5,351.167 378.5,353.833 378.5,356.5C 375.833,356.5 373.167,356.5 370.5,356.5C 370.5,353.833 370.5,351.167 370.5,348.5C 369.448,348.649 368.448,348.483 367.5,348C 370.737,345.63 371.237,342.797 369,339.5C 367.287,341.507 365.621,343.507 364,345.5C 361.347,343.845 359.014,341.845 357,339.5C 356.517,338.552 356.351,337.552 356.5,336.5C 357.659,337.456 358.826,338.456 360,339.5C 361.595,338.644 362.428,337.311 362.5,335.5C 363.675,335.719 364.675,335.386 365.5,334.5C 365.993,331.522 367.493,329.189 370,327.5C 371.078,321.676 372.578,316.01 374.5,310.5C 375.496,310.586 376.329,310.252 377,309.5C 379.092,305.803 380.259,301.803 380.5,297.5C 381.822,297.67 382.989,297.337 384,296.5C 385.899,293.124 386.732,289.457 386.5,285.5C 386.5,285.167 386.5,284.833 386.5,284.5C 387.833,284.5 389.167,284.5 390.5,284.5C 392.504,275.687 396.004,267.353 401,259.5C 401.29,257.048 401.956,254.715 403,252.5C 404.626,252.146 406.459,252.146 408.5,252.5C 408.41,250.304 408.077,248.137 407.5,246C 408.431,241.779 409.431,237.612 410.5,233.5C 410.557,232.391 410.89,231.391 411.5,230.5C 413.433,229.358 414.933,227.692 416,225.5C 416.765,223.934 416.598,222.601 415.5,221.5C 415.5,220.833 415.833,220.5 416.5,220.5C 418.722,220.822 420.556,220.155 422,218.5C 423.379,211.906 425.379,205.572 428,199.5C 429.041,197.415 430.541,195.748 432.5,194.5C 433.874,189.518 436.207,185.018 439.5,181C 440.177,176.429 441.177,171.929 442.5,167.5C 442.457,166.584 442.124,165.917 441.5,165.5C 441.833,164.833 442.167,164.167 442.5,163.5C 443.117,163.611 443.617,163.944 444,164.5C 445.841,162.841 447.008,160.841 447.5,158.5C 448.794,157.71 449.961,156.71 451,155.5C 452.751,156.174 454.417,156.507 456,156.5C 456.667,155.5 456.667,154.5 456,153.5C 455.667,153.833 455.333,154.167 455,154.5C 454.415,152.871 453.581,151.371 452.5,150C 455.186,147.488 456.186,144.321 455.5,140.5C 456.5,140.5 457.5,140.5 458.5,140.5C 458.5,137.833 458.5,135.167 458.5,132.5C 460.39,132.297 461.89,132.963 463,134.5C 464.333,133.833 465.333,132.833 466,131.5C 466.195,127.426 465.695,123.426 464.5,119.5C 466.5,119.5 468.5,119.5 470.5,119.5C 471.648,116.605 472.981,113.772 474.5,111C 471.923,108.485 471.923,105.985 474.5,103.5C 475.452,105.045 475.785,106.712 475.5,108.5C 476.833,108.5 478.167,108.5 479.5,108.5C 477.489,104.451 476.489,100.118 476.5,95.5C 478.162,92.6458 479.662,89.6458 481,86.5C 482.11,84.9632 483.61,84.2965 485.5,84.5C 485.258,75.57 489.591,70.4034 498.5,69C 525.5,68.3333 552.5,68.3333 579.5,69C 580.527,69.5133 581.527,70.0133 582.5,70.5 Z"/></g>
<g><path style="opacity:1" fill="#c4272e" d="M 582.5,67.5 C 582.5,67.8333 582.5,68.1667 582.5,68.5C 582.5,69.1667 582.5,69.8333 582.5,70.5C 581.527,70.0133 580.527,69.5133 579.5,69C 552.5,68.3333 525.5,68.3333 498.5,69C 489.591,70.4034 485.258,75.57 485.5,84.5C 483.61,84.2965 482.11,84.9632 481,86.5C 479.662,89.6458 478.162,92.6458 476.5,95.5C 474.137,99.9112 472.137,104.578 470.5,109.5C 469.5,109.5 468.5,109.5 467.5,109.5C 472.655,97.8549 477.821,86.1882 483,74.5C 484.406,71.5914 486.572,69.5914 489.5,68.5C 520.475,67.5302 551.475,67.1969 582.5,67.5 Z"/></g>
<g><path style="opacity:1" fill="#c33339" d="M 237.5,73.5 C 244.737,88.3107 251.737,103.311 258.5,118.5C 256.856,118.714 255.356,118.38 254,117.5C 251.308,108.818 248.141,100.485 244.5,92.5C 244.167,92.5 243.833,92.5 243.5,92.5C 243.306,89.6703 242.639,87.0037 241.5,84.5C 239.876,84.6399 238.71,83.9733 238,82.5C 237.502,79.5184 237.335,76.5184 237.5,73.5 Z"/></g>
<g><path style="opacity:1" fill="#ca1c24" d="M 476.5,95.5 C 476.489,100.118 477.489,104.451 479.5,108.5C 478.167,108.5 476.833,108.5 475.5,108.5C 475.785,106.712 475.452,105.045 474.5,103.5C 471.923,105.985 471.923,108.485 474.5,111C 472.981,113.772 471.648,116.605 470.5,119.5C 468.5,119.5 466.5,119.5 464.5,119.5C 465.695,123.426 466.195,127.426 466,131.5C 465.333,132.833 464.333,133.833 463,134.5C 461.89,132.963 460.39,132.297 458.5,132.5C 458.5,135.167 458.5,137.833 458.5,140.5C 457.5,140.5 456.5,140.5 455.5,140.5C 456.186,144.321 455.186,147.488 452.5,150C 453.581,151.371 454.415,152.871 455,154.5C 455.333,154.167 455.667,153.833 456,153.5C 456.667,154.5 456.667,155.5 456,156.5C 454.417,156.507 452.751,156.174 451,155.5C 449.961,156.71 448.794,157.71 447.5,158.5C 447.833,155.833 448.167,153.167 448.5,150.5C 454.436,136.59 460.769,122.924 467.5,109.5C 468.5,109.5 469.5,109.5 470.5,109.5C 472.137,104.578 474.137,99.9112 476.5,95.5 Z"/></g>
<g><path style="opacity:1" fill="#920810" d="M 572.5,92.5 C 572.662,94.5273 572.495,96.5273 572,98.5C 568.359,102.451 566.359,107.117 566,112.5C 563.316,115.869 561.149,119.536 559.5,123.5C 559.043,124.298 558.376,124.631 557.5,124.5C 562.002,113.501 567.002,102.834 572.5,92.5 Z"/></g>
<g><path style="opacity:1" fill="#d20f1a" d="M 231.5,70.5 C 232.919,71.4511 234.585,71.7845 236.5,71.5C 236.833,72.1667 237.167,72.8333 237.5,73.5C 237.335,76.5184 237.502,79.5184 238,82.5C 238.71,83.9733 239.876,84.6399 241.5,84.5C 242.639,87.0037 243.306,89.6703 243.5,92.5C 242.069,92.1193 241.236,91.1193 241,89.5C 240.517,90.448 240.351,91.448 240.5,92.5C 238.5,92.5 236.5,92.5 234.5,92.5C 234.663,90.1432 234.497,87.8098 234,85.5C 233.29,86.9733 232.124,87.6399 230.5,87.5C 230.664,84.8127 230.497,82.146 230,79.5C 228.989,78.6634 227.822,78.33 226.5,78.5C 226.5,77.1667 226.5,75.8333 226.5,74.5C 210.497,74.3334 194.497,74.5001 178.5,75C 189.28,75.1396 199.946,75.9729 210.5,77.5C 210.5,84.1667 210.5,90.8333 210.5,97.5C 207.833,97.5 205.167,97.5 202.5,97.5C 202.5,98.5 202.5,99.5 202.5,100.5C 205.167,100.5 207.833,100.5 210.5,100.5C 210.5,103.167 210.5,105.833 210.5,108.5C 199.833,108.5 189.167,108.5 178.5,108.5C 178.5,110.5 178.5,112.5 178.5,114.5C 176.516,114.383 174.85,115.05 173.5,116.5C 172.201,118.758 171.201,121.092 170.5,123.5C 172.5,123.833 174.5,124.167 176.5,124.5C 176.238,125.978 176.571,127.311 177.5,128.5C 179.461,124.993 182.461,123.66 186.5,124.5C 186.5,127.167 186.5,129.833 186.5,132.5C 183.833,132.5 181.167,132.5 178.5,132.5C 178.5,135.167 178.5,137.833 178.5,140.5C 181.167,140.5 183.833,140.5 186.5,140.5C 186.5,143.167 186.5,145.833 186.5,148.5C 189.33,148.694 191.996,149.361 194.5,150.5C 194.334,153.168 193.334,155.502 191.5,157.5C 193.167,161.5 194.833,161.5 196.5,157.5C 203.803,156.503 211.137,156.169 218.5,156.5C 218.5,151.167 218.5,145.833 218.5,140.5C 226.5,140.5 234.5,140.5 242.5,140.5C 242.554,130.905 243.554,121.405 245.5,112C 244.042,107.839 244.375,103.839 246.5,100C 245.376,99.7508 244.376,99.2508 243.5,98.5C 244.348,96.5914 244.682,94.5914 244.5,92.5C 248.141,100.485 251.308,108.818 254,117.5C 255.356,118.38 256.856,118.714 258.5,118.5C 258.833,119.167 259.167,119.833 259.5,120.5C 258.402,121.601 258.235,122.934 259,124.5C 260.267,126.814 261.434,129.148 262.5,131.5C 260.748,131.418 259.748,132.251 259.5,134C 261.87,136.531 262.537,139.364 261.5,142.5C 264.521,145.629 265.188,149.295 263.5,153.5C 262.914,153.291 262.414,152.957 262,152.5C 261.667,150.167 261.333,147.833 261,145.5C 259.117,144.347 258.284,142.681 258.5,140.5C 256.833,140.5 255.167,140.5 253.5,140.5C 253.5,143.167 253.5,145.833 253.5,148.5C 252.5,148.5 251.5,148.5 250.5,148.5C 250.5,151.167 250.5,153.833 250.5,156.5C 247.833,156.5 245.167,156.5 242.5,156.5C 242.5,154.833 242.5,153.167 242.5,151.5C 239.833,151.5 237.167,151.5 234.5,151.5C 234.5,153.167 234.5,154.833 234.5,156.5C 231.833,156.5 229.167,156.5 226.5,156.5C 226.5,164.5 226.5,172.5 226.5,180.5C 223.833,180.5 221.167,180.5 218.5,180.5C 218.5,185.833 218.5,191.167 218.5,196.5C 223.833,196.5 229.167,196.5 234.5,196.5C 234.5,193.833 234.5,191.167 234.5,188.5C 237.167,188.5 239.833,188.5 242.5,188.5C 242.5,183.167 242.5,177.833 242.5,172.5C 247.833,172.5 253.167,172.5 258.5,172.5C 258.5,188.5 258.5,204.5 258.5,220.5C 253.167,220.5 247.833,220.5 242.5,220.5C 242.5,215.167 242.5,209.833 242.5,204.5C 237.167,204.5 231.833,204.5 226.5,204.5C 227.054,210.395 226.388,216.062 224.5,221.5C 226.299,228.058 226.799,234.725 226,241.5C 224.991,239.975 224.491,238.308 224.5,236.5C 223.022,236.238 221.689,236.571 220.5,237.5C 221.246,238.736 221.579,240.07 221.5,241.5C 219.818,240.173 218.485,238.506 217.5,236.5C 216.5,236.5 215.5,236.5 214.5,236.5C 214.741,234.102 214.074,232.102 212.5,230.5C 211.213,227.302 210.547,223.969 210.5,220.5C 208.876,220.64 207.71,219.973 207,218.5C 204.127,209.76 200.461,201.427 196,193.5C 195.506,191.866 195.34,190.199 195.5,188.5C 194.325,188.719 193.325,188.386 192.5,187.5C 192.091,185.009 190.924,183.009 189,181.5C 188.51,180.207 188.343,178.873 188.5,177.5C 189.201,173.181 188.034,169.514 185,166.5C 184.667,162.5 184.333,158.5 184,154.5C 183.29,155.973 182.124,156.64 180.5,156.5C 177.089,151.021 174.589,144.354 173,136.5C 170.736,134.034 168.736,131.367 167,128.5C 166.808,126.423 166.308,124.423 165.5,122.5C 162.306,116.112 159.139,109.778 156,103.5C 154.961,102.29 153.794,101.29 152.5,100.5C 147.791,95.0811 144.791,88.7478 143.5,81.5C 143.771,79.1789 143.104,77.1789 141.5,75.5C 142.734,73.6017 142.401,71.935 140.5,70.5C 170.857,69.1899 201.191,69.1899 231.5,70.5 Z"/></g>
<g><path style="opacity:1" fill="#d60e19" d="M 243.5,92.5 C 243.833,92.5 244.167,92.5 244.5,92.5C 244.682,94.5914 244.348,96.5914 243.5,98.5C 244.376,99.2508 245.376,99.7508 246.5,100C 244.375,103.839 244.042,107.839 245.5,112C 243.554,121.405 242.554,130.905 242.5,140.5C 234.5,140.5 226.5,140.5 218.5,140.5C 218.5,145.833 218.5,151.167 218.5,156.5C 211.137,156.169 203.803,156.503 196.5,157.5C 194.833,161.5 193.167,161.5 191.5,157.5C 193.334,155.502 194.334,153.168 194.5,150.5C 191.996,149.361 189.33,148.694 186.5,148.5C 186.5,145.833 186.5,143.167 186.5,140.5C 183.833,140.5 181.167,140.5 178.5,140.5C 178.5,137.833 178.5,135.167 178.5,132.5C 181.167,132.5 183.833,132.5 186.5,132.5C 186.5,129.833 186.5,127.167 186.5,124.5C 182.461,123.66 179.461,124.993 177.5,128.5C 176.571,127.311 176.238,125.978 176.5,124.5C 174.5,124.167 172.5,123.833 170.5,123.5C 171.201,121.092 172.201,118.758 173.5,116.5C 174.85,115.05 176.516,114.383 178.5,114.5C 178.5,112.5 178.5,110.5 178.5,108.5C 189.167,108.5 199.833,108.5 210.5,108.5C 210.5,105.833 210.5,103.167 210.5,100.5C 207.833,100.5 205.167,100.5 202.5,100.5C 202.5,99.5 202.5,98.5 202.5,97.5C 205.167,97.5 207.833,97.5 210.5,97.5C 210.5,90.8333 210.5,84.1667 210.5,77.5C 199.946,75.9729 189.28,75.1396 178.5,75C 194.497,74.5001 210.497,74.3334 226.5,74.5C 226.5,75.8333 226.5,77.1667 226.5,78.5C 227.822,78.33 228.989,78.6634 230,79.5C 230.497,82.146 230.664,84.8127 230.5,87.5C 232.124,87.6399 233.29,86.9733 234,85.5C 234.497,87.8098 234.663,90.1432 234.5,92.5C 236.5,92.5 238.5,92.5 240.5,92.5C 240.351,91.448 240.517,90.448 241,89.5C 241.236,91.1193 242.069,92.1193 243.5,92.5 Z"/></g>
<g><path style="opacity:1" fill="#c13c3d" d="M 259.5,120.5 C 264.148,130.465 268.815,140.465 273.5,150.5C 272.778,150.918 272.278,151.584 272,152.5C 268.719,145.464 265.552,138.464 262.5,131.5C 261.434,129.148 260.267,126.814 259,124.5C 258.235,122.934 258.402,121.601 259.5,120.5 Z"/></g>
<g><path style="opacity:1" fill="#84090d" d="M 557.5,124.5 C 558.479,129.757 556.979,134.09 553,137.5C 552.607,140.633 551.774,143.633 550.5,146.5C 547.029,151.775 544.363,157.442 542.5,163.5C 541.412,164.934 540.078,165.934 538.5,166.5C 540.708,160.412 543.208,154.412 546,148.5C 546.333,146.5 546.667,144.5 547,142.5C 550.765,136.633 554.265,130.633 557.5,124.5 Z"/></g>
<g><path style="opacity:1" fill="#8c1111" d="M 157.5,139.5 C 158.154,143.809 159.654,147.809 162,151.5C 162.566,163.242 165.899,174.575 172,185.5C 172.59,190.441 174.59,194.775 178,198.5C 178.495,200.473 178.662,202.473 178.5,204.5C 180.167,204.5 181.833,204.5 183.5,204.5C 185.244,211.559 187.078,218.559 189,225.5C 189.415,227.291 190.415,228.624 192,229.5C 195.434,241.121 198.434,252.788 201,264.5C 202.648,268.072 204.148,271.739 205.5,275.5C 204.524,277.123 205.024,278.457 207,279.5C 209.665,285.474 212.331,291.474 215,297.5C 217.129,308.674 220.795,319.34 226,329.5C 227.147,336.121 229.147,342.454 232,348.5C 234.308,358.112 236.308,367.778 238,377.5C 239.487,378.253 239.654,379.086 238.5,380C 239.793,380.49 241.127,380.657 242.5,380.5C 242.503,384.524 242.836,388.524 243.5,392.5C 243.585,394.333 244.252,395.666 245.5,396.5C 245.5,417.833 245.5,439.167 245.5,460.5C 243.711,465.407 242.878,470.74 243,476.5C 242.5,468.495 242,460.495 241.5,452.5C 236.5,452.5 231.5,452.5 226.5,452.5C 226.5,455.167 226.5,457.833 226.5,460.5C 215.833,460.5 205.167,460.5 194.5,460.5C 194.5,465.833 194.5,471.167 194.5,476.5C 205.167,476.5 215.833,476.5 226.5,476.5C 226.5,481.833 226.5,487.167 226.5,492.5C 232.167,492.5 237.833,492.5 243.5,492.5C 244.366,508.483 244.7,524.483 244.5,540.5C 243.5,540.5 242.5,540.5 241.5,540.5C 241.167,535.167 240.833,529.833 240.5,524.5C 239.5,524.5 238.5,524.5 237.5,524.5C 237.5,527.167 237.5,529.833 237.5,532.5C 233.833,532.5 230.167,532.5 226.5,532.5C 226.5,535.167 226.5,537.833 226.5,540.5C 221.167,540.5 215.833,540.5 210.5,540.5C 210.5,543.167 210.5,545.833 210.5,548.5C 205.167,548.5 199.833,548.5 194.5,548.5C 194.5,554.833 194.5,561.167 194.5,567.5C 197.167,567.5 199.833,567.5 202.5,567.5C 202.5,566.5 202.5,565.5 202.5,564.5C 205.167,564.5 207.833,564.5 210.5,564.5C 210.5,567.167 210.5,569.833 210.5,572.5C 209.5,572.5 208.5,572.5 207.5,572.5C 207.5,575.167 207.5,577.833 207.5,580.5C 211.167,580.5 214.833,580.5 218.5,580.5C 218.5,583.167 218.5,585.833 218.5,588.5C 216.08,588.292 213.747,588.626 211.5,589.5C 210.534,587.604 210.201,585.604 210.5,583.5C 207.833,583.5 205.167,583.5 202.5,583.5C 202.5,584.833 202.5,586.167 202.5,587.5C 199.833,587.5 197.167,587.5 194.5,587.5C 194.5,582.5 194.5,577.5 194.5,572.5C 178.5,572.5 162.5,572.5 146.5,572.5C 146.666,577.179 146.499,581.845 146,586.5C 145.667,584.833 145.333,583.167 145,581.5C 144.079,550.491 143.912,519.491 144.5,488.5C 143.871,416.664 143.204,344.831 142.5,273C 144.131,246.15 145.131,219.316 145.5,192.5C 144.337,185.897 143.67,179.23 143.5,172.5C 144.503,160.489 144.503,148.489 143.5,136.5C 144.125,128.656 144.792,120.99 145.5,113.5C 147.124,113.36 148.29,114.027 149,115.5C 151.147,123.901 153.98,131.901 157.5,139.5 Z"/></g>
<g><path style="opacity:1" fill="#c3131f" d="M 152.5,100.5 C 153.794,101.29 154.961,102.29 156,103.5C 159.139,109.778 162.306,116.112 165.5,122.5C 166.308,124.423 166.808,126.423 167,128.5C 168.736,131.367 170.736,134.034 173,136.5C 174.589,144.354 177.089,151.021 180.5,156.5C 182.124,156.64 183.29,155.973 184,154.5C 184.333,158.5 184.667,162.5 185,166.5C 188.034,169.514 189.201,173.181 188.5,177.5C 187.536,174.926 186.036,172.592 184,170.5C 177.811,157.447 172.144,144.114 167,130.5C 165.236,128.611 163.736,126.611 162.5,124.5C 158.869,116.667 155.536,108.667 152.5,100.5 Z"/></g>
<g><path style="opacity:1" fill="#c2363c" d="M 448.5,150.5 C 448.167,153.167 447.833,155.833 447.5,158.5C 447.008,160.841 445.841,162.841 444,164.5C 443.617,163.944 443.117,163.611 442.5,163.5C 444.261,158.982 446.261,154.649 448.5,150.5 Z"/></g>
<g><path style="opacity:1" fill="#c23737" d="M 274.5,153.5 C 278.07,160.309 281.403,167.309 284.5,174.5C 283.778,174.918 283.278,175.584 283,176.5C 278.505,169.573 275.672,161.906 274.5,153.5 Z"/></g>
<g><path style="opacity:1" fill="#c4444a" d="M 285.5,176.5 C 288.678,182.196 291.344,188.196 293.5,194.5C 291.087,193.32 290.087,191.32 290.5,188.5C 288.876,188.64 287.71,187.973 287,186.5C 286.39,183.173 285.89,179.839 285.5,176.5 Z"/></g>
<g><path style="opacity:1" fill="#c4282d" d="M 441.5,165.5 C 442.124,165.917 442.457,166.584 442.5,167.5C 441.177,171.929 440.177,176.429 439.5,181C 436.207,185.018 433.874,189.518 432.5,194.5C 430.541,195.748 429.041,197.415 428,199.5C 425.379,205.572 423.379,211.906 422,218.5C 420.556,220.155 418.722,220.822 416.5,220.5C 424.614,201.948 432.947,183.615 441.5,165.5 Z"/></g>
<g><path style="opacity:1" fill="#a00d16" d="M 535.5,172.5 C 534.368,176.762 532.201,180.429 529,183.5C 526.496,188.021 524.996,192.854 524.5,198C 523.063,200.208 521.73,202.374 520.5,204.5C 522.276,199.271 523.776,193.937 525,188.5C 527.633,183.372 530.467,178.372 533.5,173.5C 533.957,172.702 534.624,172.369 535.5,172.5 Z"/></g>
<g><path style="opacity:1" fill="#8c1111" d="M 506.5,300.5 C 509.743,286.979 513.91,273.646 519,260.5C 519.497,257.854 519.664,255.187 519.5,252.5C 521.167,252.5 522.833,252.5 524.5,252.5C 527.605,243.413 529.771,234.079 531,224.5C 535.799,212.44 540.799,200.44 546,188.5C 546.499,183.177 546.666,177.844 546.5,172.5C 547.833,172.5 549.167,172.5 550.5,172.5C 550.841,167.808 552.341,163.474 555,159.5C 556.822,153.879 558.489,148.212 560,142.5C 565.656,129.958 570.822,117.291 575.5,104.5C 576.15,104.196 576.817,103.863 577.5,103.5C 578.452,105.045 578.785,106.712 578.5,108.5C 580.167,108.5 581.833,108.5 583.5,108.5C 583.667,260.5 583.5,412.5 583,564.5C 582.4,521.824 581.4,479.157 580,436.5C 579.5,444.505 579,452.505 578.5,460.5C 573.167,460.5 567.833,460.5 562.5,460.5C 562.5,468.5 562.5,476.5 562.5,484.5C 565.167,484.5 567.833,484.5 570.5,484.5C 570.5,479.167 570.5,473.833 570.5,468.5C 573.167,468.5 575.833,468.5 578.5,468.5C 579.25,503.179 578.583,537.846 576.5,572.5C 566.5,572.5 556.5,572.5 546.5,572.5C 546.5,567.167 546.5,561.833 546.5,556.5C 541.167,556.5 535.833,556.5 530.5,556.5C 530.5,551.167 530.5,545.833 530.5,540.5C 513.833,540.5 497.167,540.5 480.5,540.5C 480.5,535.167 480.5,529.833 480.5,524.5C 479.5,524.5 478.5,524.5 477.5,524.5C 476.599,527.113 475.932,532.446 475.5,540.5C 474.333,495.504 474.167,450.504 475,405.5C 475.166,401.489 476,400.989 477.5,404C 477.411,412.016 477.411,420.183 477.5,428.5C 478.5,428.5 479.5,428.5 480.5,428.5C 480.118,412.794 480.618,397.128 482,381.5C 482.98,379.941 483.813,378.274 484.5,376.5C 485.429,377.689 485.762,379.022 485.5,380.5C 487.167,380.5 488.833,380.5 490.5,380.5C 490.198,376.177 490.865,372.01 492.5,368C 492.415,366.893 492.081,365.893 491.5,365C 493.429,362.575 494.429,359.742 494.5,356.5C 495.833,356.5 497.167,356.5 498.5,356.5C 498.5,353.833 498.5,351.167 498.5,348.5C 497.5,348.5 496.5,348.5 495.5,348.5C 496.291,345.583 496.291,342.75 495.5,340C 497.92,336.263 499.086,332.096 499,327.5C 500,326.5 501,325.5 502,324.5C 504.72,325.711 506.22,324.711 506.5,321.5C 504.915,319.996 504.248,317.496 504.5,314C 505.066,309.475 505.732,304.975 506.5,300.5 Z"/></g>
<g><path style="opacity:1" fill="#c72d34" d="M 294.5,195.5 C 300.212,206.958 305.545,218.625 310.5,230.5C 308.83,230.249 307.33,229.582 306,228.5C 305.759,225.711 305.092,223.044 304,220.5C 303.667,222.167 303.333,223.833 303,225.5C 302.583,222.578 301.583,219.911 300,217.5C 299.667,218.167 299.333,218.833 299,219.5C 298.257,217.559 298.424,215.726 299.5,214C 298.194,209.268 296.361,204.768 294,200.5C 293.22,198.613 293.387,196.946 294.5,195.5 Z"/></g>
<g><path style="opacity:1" fill="#d50e19" d="M 262.5,131.5 C 265.552,138.464 268.719,145.464 272,152.5C 272.278,151.584 272.778,150.918 273.5,150.5C 274.11,151.391 274.443,152.391 274.5,153.5C 275.672,161.906 278.505,169.573 283,176.5C 283.278,175.584 283.778,174.918 284.5,174.5C 284.833,175.167 285.167,175.833 285.5,176.5C 285.89,179.839 286.39,183.173 287,186.5C 287.71,187.973 288.876,188.64 290.5,188.5C 290.087,191.32 291.087,193.32 293.5,194.5C 294.167,194.5 294.5,194.833 294.5,195.5C 293.387,196.946 293.22,198.613 294,200.5C 296.361,204.768 298.194,209.268 299.5,214C 298.424,215.726 298.257,217.559 299,219.5C 299.333,218.833 299.667,218.167 300,217.5C 301.583,219.911 302.583,222.578 303,225.5C 303.333,223.833 303.667,222.167 304,220.5C 305.092,223.044 305.759,225.711 306,228.5C 307.33,229.582 308.83,230.249 310.5,230.5C 311.451,237.39 313.784,243.724 317.5,249.5C 318.321,252.447 318.821,255.447 319,258.5C 320.011,259.337 321.178,259.67 322.5,259.5C 322.343,260.873 322.51,262.207 323,263.5C 325.41,266.065 327.576,268.732 329.5,271.5C 330.345,272.671 331.011,274.005 331.5,275.5C 330.876,275.917 330.543,276.584 330.5,277.5C 332.151,280.617 333.318,283.951 334,287.5C 335.694,290.68 337.861,293.347 340.5,295.5C 339.739,300.639 341.239,304.973 345,308.5C 345.333,310.167 345.667,311.833 346,313.5C 348.616,316.398 350.449,319.731 351.5,323.5C 352.265,324.612 353.265,325.279 354.5,325.5C 355.008,329.197 355.674,332.864 356.5,336.5C 356.351,337.552 356.517,338.552 357,339.5C 359.014,341.845 361.347,343.845 364,345.5C 365.621,343.507 367.287,341.507 369,339.5C 371.237,342.797 370.737,345.63 367.5,348C 368.448,348.483 369.448,348.649 370.5,348.5C 370.5,351.167 370.5,353.833 370.5,356.5C 373.167,356.5 375.833,356.5 378.5,356.5C 378.5,353.833 378.5,351.167 378.5,348.5C 386.5,348.5 394.5,348.5 402.5,348.5C 402.5,351.167 402.5,353.833 402.5,356.5C 405.167,356.5 407.833,356.5 410.5,356.5C 410.5,359.167 410.5,361.833 410.5,364.5C 415.833,364.5 421.167,364.5 426.5,364.5C 426.5,359.167 426.5,353.833 426.5,348.5C 423.833,348.5 421.167,348.5 418.5,348.5C 418.5,337.833 418.5,327.167 418.5,316.5C 423.833,316.5 429.167,316.5 434.5,316.5C 435.593,304.579 435.26,299.246 433.5,300.5C 431.5,300.5 429.5,300.5 427.5,300.5C 427.5,297.833 427.5,295.167 427.5,292.5C 428.833,292.5 430.167,292.5 431.5,292.5C 431.5,287.167 431.5,281.833 431.5,276.5C 432.5,276.5 433.5,276.5 434.5,276.5C 434.5,279.167 434.5,281.833 434.5,284.5C 439.833,284.5 445.167,284.5 450.5,284.5C 450.5,273.833 450.5,263.167 450.5,252.5C 455.833,252.5 461.167,252.5 466.5,252.5C 466.5,241.833 466.5,231.167 466.5,220.5C 477.167,220.5 487.833,220.5 498.5,220.5C 498.5,218.833 498.5,217.167 498.5,215.5C 495.833,215.5 493.167,215.5 490.5,215.5C 490.5,214.5 490.5,213.5 490.5,212.5C 493.898,212.18 497.232,212.513 500.5,213.5C 500.291,214.086 499.957,214.586 499.5,215C 501.526,217.391 501.526,219.557 499.5,221.5C 500.5,223.167 501.5,224.833 502.5,226.5C 502.167,227.833 501.833,229.167 501.5,230.5C 501.176,232.569 500.342,232.902 499,231.5C 498.727,233.329 497.893,234.829 496.5,236C 491.501,236.583 486.835,237.749 482.5,239.5C 482.5,241.167 482.5,242.833 482.5,244.5C 481.527,246.948 481.194,249.615 481.5,252.5C 484.399,250.796 487.232,248.796 490,246.5C 490.495,248.473 490.662,250.473 490.5,252.5C 488.833,252.5 487.167,252.5 485.5,252.5C 485.685,258.56 487.519,258.893 491,253.5C 491.667,254.833 491.667,256.167 491,257.5C 488.733,262.371 486.733,267.371 485,272.5C 482.712,274.8 481.045,277.467 480,280.5C 479.333,279.167 478.667,277.833 478,276.5C 477.68,281.023 477.18,285.523 476.5,290C 472.991,298.978 469.325,307.811 465.5,316.5C 463.712,316.215 462.045,316.548 460.5,317.5C 461.562,320.103 461.728,322.77 461,325.5C 458.918,328.487 457.751,331.821 457.5,335.5C 457.167,335.5 456.833,335.5 456.5,335.5C 454.34,337.998 453.007,340.998 452.5,344.5C 448.327,346.409 446.161,349.742 446,354.5C 443.049,357.172 441.883,360.505 442.5,364.5C 441.167,364.5 439.833,364.5 438.5,364.5C 438.5,367.5 438.5,370.5 438.5,373.5C 437.127,373.343 435.793,373.51 434.5,374C 435.605,376.12 435.605,378.287 434.5,380.5C 434.5,382.5 434.5,384.5 434.5,386.5C 434.672,387.492 434.338,388.158 433.5,388.5C 432.178,388.33 431.011,388.663 430,389.5C 429.405,394.671 428.239,399.671 426.5,404.5C 424.386,405.784 423.386,407.784 423.5,410.5C 421.922,411.066 420.588,412.066 419.5,413.5C 417.854,417.778 416.521,422.111 415.5,426.5C 410.822,433.854 406.655,441.52 403,449.5C 402.506,451.134 402.34,452.801 402.5,454.5C 399.625,456.249 398.292,458.915 398.5,462.5C 397.883,462.389 397.383,462.056 397,461.5C 395.838,464.548 394.338,467.215 392.5,469.5C 388.213,471.837 386.38,475.504 387,480.5C 383.812,484.254 381.312,488.254 379.5,492.5C 377.665,493.122 376.498,494.456 376,496.5C 375.13,495.892 374.63,495.059 374.5,494C 376.5,489.667 378.5,485.333 380.5,481C 381.482,479.946 382.649,479.446 384,479.5C 384.483,478.552 384.649,477.552 384.5,476.5C 382.833,476.5 381.167,476.5 379.5,476.5C 379.769,478.429 379.269,480.095 378,481.5C 376.024,480.572 374.191,479.405 372.5,478C 373.805,475.852 375.638,474.352 378,473.5C 378.5,466.508 378.666,459.508 378.5,452.5C 380.604,452.799 382.604,452.466 384.5,451.5C 387.528,449.47 389.861,446.803 391.5,443.5C 392.325,442.614 393.325,442.281 394.5,442.5C 395.037,437.982 395.037,433.315 394.5,428.5C 391.833,428.5 389.167,428.5 386.5,428.5C 386.5,433.833 386.5,439.167 386.5,444.5C 375.833,444.5 365.167,444.5 354.5,444.5C 354.5,439.167 354.5,433.833 354.5,428.5C 349.167,428.5 343.833,428.5 338.5,428.5C 338.5,417.833 338.5,407.167 338.5,396.5C 333.167,396.5 327.833,396.5 322.5,396.5C 322.5,393.833 322.5,391.167 322.5,388.5C 319.833,388.5 317.167,388.5 314.5,388.5C 314.5,383.167 314.5,377.833 314.5,372.5C 309.167,372.5 303.833,372.5 298.5,372.5C 298.708,370.08 298.374,367.747 297.5,365.5C 293.893,364.511 290.226,364.177 286.5,364.5C 287.612,359.162 287.612,353.829 286.5,348.5C 285.5,347.833 284.5,347.167 283.5,346.5C 282.756,347.991 282.09,349.491 281.5,351C 283.037,353.313 283.537,355.813 283,358.5C 281.333,357.833 279.667,357.167 278,356.5C 276.921,353.937 276.421,351.271 276.5,348.5C 273.412,348.803 271.746,347.47 271.5,344.5C 271.5,343.167 271.5,341.833 271.5,340.5C 269.533,340.739 267.699,340.406 266,339.5C 264.243,334.963 262.91,330.296 262,325.5C 259.334,322.824 257.167,319.824 255.5,316.5C 255.74,313.421 255.407,310.421 254.5,307.5C 252.955,306.548 251.288,306.215 249.5,306.5C 249.665,303.482 249.498,300.482 249,297.5C 247,296.833 245.667,295.5 245,293.5C 238.829,279.342 233.163,265.009 228,250.5C 227,250.167 226,249.833 225,249.5C 224.632,246.435 223.465,243.768 221.5,241.5C 221.579,240.07 221.246,238.736 220.5,237.5C 221.689,236.571 223.022,236.238 224.5,236.5C 224.491,238.308 224.991,239.975 226,241.5C 226.799,234.725 226.299,228.058 224.5,221.5C 226.388,216.062 227.054,210.395 226.5,204.5C 231.833,204.5 237.167,204.5 242.5,204.5C 242.5,209.833 242.5,215.167 242.5,220.5C 247.833,220.5 253.167,220.5 258.5,220.5C 258.5,204.5 258.5,188.5 258.5,172.5C 253.167,172.5 247.833,172.5 242.5,172.5C 242.5,177.833 242.5,183.167 242.5,188.5C 239.833,188.5 237.167,188.5 234.5,188.5C 234.5,191.167 234.5,193.833 234.5,196.5C 229.167,196.5 223.833,196.5 218.5,196.5C 218.5,191.167 218.5,185.833 218.5,180.5C 221.167,180.5 223.833,180.5 226.5,180.5C 226.5,172.5 226.5,164.5 226.5,156.5C 229.167,156.5 231.833,156.5 234.5,156.5C 234.5,154.833 234.5,153.167 234.5,151.5C 237.167,151.5 239.833,151.5 242.5,151.5C 242.5,153.167 242.5,154.833 242.5,156.5C 245.167,156.5 247.833,156.5 250.5,156.5C 250.5,153.833 250.5,151.167 250.5,148.5C 251.5,148.5 252.5,148.5 253.5,148.5C 253.5,145.833 253.5,143.167 253.5,140.5C 255.167,140.5 256.833,140.5 258.5,140.5C 258.284,142.681 259.117,144.347 261,145.5C 261.333,147.833 261.667,150.167 262,152.5C 262.414,152.957 262.914,153.291 263.5,153.5C 265.188,149.295 264.521,145.629 261.5,142.5C 262.537,139.364 261.87,136.531 259.5,134C 259.748,132.251 260.748,131.418 262.5,131.5 Z"/></g>
<g><path style="opacity:1" fill="#bf5251" d="M 415.5,221.5 C 416.598,222.601 416.765,223.934 416,225.5C 414.933,227.692 413.433,229.358 411.5,230.5C 412.561,227.378 413.895,224.378 415.5,221.5 Z"/></g>
<g><path style="opacity:1" fill="#c43c3c" d="M 310.5,230.5 C 317.617,243.738 323.95,257.404 329.5,271.5C 327.576,268.732 325.41,266.065 323,263.5C 322.51,262.207 322.343,260.873 322.5,259.5C 321.178,259.67 320.011,259.337 319,258.5C 318.821,255.447 318.321,252.447 317.5,249.5C 313.784,243.724 311.451,237.39 310.5,230.5 Z"/></g>
<g><path style="opacity:1" fill="#c9121d" d="M 514.5,212.5 C 511.883,220.689 508.883,228.689 505.5,236.5C 504.5,236.5 503.5,236.5 502.5,236.5C 502.66,238.199 502.494,239.866 502,241.5C 498.867,247.744 496.034,254.078 493.5,260.5C 491.876,260.36 490.71,261.027 490,262.5C 486.393,276.042 480.893,288.708 473.5,300.5C 472.52,303.086 472.187,305.753 472.5,308.5C 471.5,308.833 470.833,309.5 470.5,310.5C 470.008,312.819 469.008,314.819 467.5,316.5C 464.635,319.908 462.969,323.908 462.5,328.5C 461.504,328.414 460.671,328.748 460,329.5C 459.76,331.852 458.927,333.852 457.5,335.5C 457.751,331.821 458.918,328.487 461,325.5C 461.728,322.77 461.562,320.103 460.5,317.5C 462.045,316.548 463.712,316.215 465.5,316.5C 469.325,307.811 472.991,298.978 476.5,290C 477.18,285.523 477.68,281.023 478,276.5C 478.667,277.833 479.333,279.167 480,280.5C 481.045,277.467 482.712,274.8 485,272.5C 486.733,267.371 488.733,262.371 491,257.5C 491.667,256.167 491.667,254.833 491,253.5C 487.519,258.893 485.685,258.56 485.5,252.5C 487.167,252.5 488.833,252.5 490.5,252.5C 490.662,250.473 490.495,248.473 490,246.5C 487.232,248.796 484.399,250.796 481.5,252.5C 481.194,249.615 481.527,246.948 482.5,244.5C 482.238,245.978 482.571,247.311 483.5,248.5C 487.834,245.661 491.668,242.327 495,238.5C 495.813,241.982 497.479,242.315 500,239.5C 500.154,236.475 501.654,234.809 504.5,234.5C 503.889,231.039 505.056,228.372 508,226.5C 508.199,220.77 510.366,216.103 514.5,212.5 Z"/></g>
<g><path style="opacity:1" fill="#c4131e" d="M 217.5,236.5 C 218.485,238.506 219.818,240.173 221.5,241.5C 223.465,243.768 224.632,246.435 225,249.5C 226,249.833 227,250.167 228,250.5C 233.163,265.009 238.829,279.342 245,293.5C 245.667,295.5 247,296.833 249,297.5C 249.498,300.482 249.665,303.482 249.5,306.5C 251.288,306.215 252.955,306.548 254.5,307.5C 255.407,310.421 255.74,313.421 255.5,316.5C 254.833,316.5 254.167,316.5 253.5,316.5C 253.5,314.833 253.5,313.167 253.5,311.5C 252.5,311.5 251.5,311.5 250.5,311.5C 250.5,311.167 250.5,310.833 250.5,310.5C 250.5,309.167 249.833,308.5 248.5,308.5C 247.157,300.973 243.99,294.307 239,288.5C 236.452,282.724 234.452,276.724 233,270.5C 231.833,268.167 230.667,265.833 229.5,263.5C 228.675,262.614 227.675,262.281 226.5,262.5C 225.093,254.688 222.259,247.354 218,240.5C 217.51,239.207 217.343,237.873 217.5,236.5 Z"/></g>
<g><path style="opacity:1" fill="#730d0f" d="M 575.5,104.5 C 570.822,117.291 565.656,129.958 560,142.5C 558.489,148.212 556.822,153.879 555,159.5C 552.341,163.474 550.841,167.808 550.5,172.5C 549.167,172.5 547.833,172.5 546.5,172.5C 546.666,177.844 546.499,183.177 546,188.5C 540.799,200.44 535.799,212.44 531,224.5C 529.771,234.079 527.605,243.413 524.5,252.5C 522.833,252.5 521.167,252.5 519.5,252.5C 519.664,255.187 519.497,257.854 519,260.5C 513.91,273.646 509.743,286.979 506.5,300.5C 505.5,300.5 504.5,300.5 503.5,300.5C 503.722,306.002 502.055,310.835 498.5,315C 498.833,315.333 499.167,315.667 499.5,316C 498.795,321.548 497.795,327.048 496.5,332.5C 495.5,332.5 494.5,332.5 493.5,332.5C 492.906,337.846 492.239,343.18 491.5,348.5C 490.5,348.5 489.5,348.5 488.5,348.5C 488.476,353.923 487.81,359.257 486.5,364.5C 483.167,364.837 482.167,366.504 483.5,369.5C 481.373,378.38 479.706,387.38 478.5,396.5C 477.167,396.5 475.833,396.5 474.5,396.5C 474.333,368.498 474.5,340.498 475,312.5C 476.022,313.354 476.855,314.354 477.5,315.5C 476.546,321.104 476.212,326.771 476.5,332.5C 477.833,332.5 479.167,332.5 480.5,332.5C 480.666,325.159 480.5,317.826 480,310.5C 479.02,309.019 477.853,307.685 476.5,306.5C 475.119,307.881 473.785,309.215 472.5,310.5C 472.5,309.833 472.5,309.167 472.5,308.5C 472.187,305.753 472.52,303.086 473.5,300.5C 480.893,288.708 486.393,276.042 490,262.5C 490.71,261.027 491.876,260.36 493.5,260.5C 496.034,254.078 498.867,247.744 502,241.5C 502.494,239.866 502.66,238.199 502.5,236.5C 503.5,236.5 504.5,236.5 505.5,236.5C 508.883,228.689 511.883,220.689 514.5,212.5C 517.02,210.082 519.02,207.415 520.5,204.5C 521.73,202.374 523.063,200.208 524.5,198C 524.996,192.854 526.496,188.021 529,183.5C 532.201,180.429 534.368,176.762 535.5,172.5C 535.455,169.923 536.455,167.923 538.5,166.5C 540.078,165.934 541.412,164.934 542.5,163.5C 544.363,157.442 547.029,151.775 550.5,146.5C 551.774,143.633 552.607,140.633 553,137.5C 556.979,134.09 558.479,129.757 557.5,124.5C 558.376,124.631 559.043,124.298 559.5,123.5C 561.149,119.536 563.316,115.869 566,112.5C 566.359,107.117 568.359,102.451 572,98.5C 572.495,96.5273 572.662,94.5273 572.5,92.5C 572.833,92.5 573.167,92.5 573.5,92.5C 577.308,88.6925 579.642,84.0259 580.5,78.5C 581.016,83.1043 581.016,87.7709 580.5,92.5C 579.5,92.5 578.5,92.5 577.5,92.5C 577.81,96.6995 577.143,100.7 575.5,104.5 Z"/></g>
<g><path style="opacity:1" fill="#bf3237" d="M 410.5,233.5 C 409.431,237.612 408.431,241.779 407.5,246C 408.077,248.137 408.41,250.304 408.5,252.5C 406.459,252.146 404.626,252.146 403,252.5C 401.956,254.715 401.29,257.048 401,259.5C 396.004,267.353 392.504,275.687 390.5,284.5C 389.167,284.5 387.833,284.5 386.5,284.5C 393.751,267.046 401.751,250.046 410.5,233.5 Z"/></g>
<g><path style="opacity:1" fill="#82070b" d="M 212.5,230.5 C 214.074,232.102 214.741,234.102 214.5,236.5C 215.5,236.5 216.5,236.5 217.5,236.5C 217.343,237.873 217.51,239.207 218,240.5C 222.259,247.354 225.093,254.688 226.5,262.5C 227.675,262.281 228.675,262.614 229.5,263.5C 230.667,265.833 231.833,268.167 233,270.5C 234.452,276.724 236.452,282.724 239,288.5C 243.99,294.307 247.157,300.973 248.5,308.5C 248.5,308.833 248.5,309.167 248.5,309.5C 246.957,308.264 245.957,306.598 245.5,304.5C 244.675,303.614 243.675,303.281 242.5,303.5C 239.914,296.244 237.414,288.911 235,281.5C 231.869,277.571 229.536,273.237 228,268.5C 226.27,268.491 224.437,268.158 222.5,267.5C 223.046,266.228 223.379,264.894 223.5,263.5C 222.02,259.71 221.187,255.71 221,251.5C 220.249,248.951 218.582,247.284 216,246.5C 214.513,241.221 213.347,235.888 212.5,230.5 Z"/></g>
<g><path style="opacity:1" fill="#c14545" d="M 331.5,275.5 C 334.887,281.994 337.887,288.661 340.5,295.5C 337.861,293.347 335.694,290.68 334,287.5C 333.318,283.951 332.151,280.617 330.5,277.5C 330.543,276.584 330.876,275.917 331.5,275.5 Z"/></g>
<g><path style="opacity:1" fill="#761718" d="M 582.5,68.5 C 582.5,68.1667 582.5,67.8333 582.5,67.5C 583.5,67.5 584.5,67.5 585.5,67.5C 585.5,245.167 585.5,422.833 585.5,600.5C 577.833,600.5 570.167,600.5 562.5,600.5C 559.627,600.198 556.961,599.531 554.5,598.5C 564.395,599.601 574.228,599.601 584,598.5C 584.167,510.167 584.333,421.833 584.5,333.5C 584.5,244.831 583.833,156.497 582.5,68.5 Z"/></g>
<g><path style="opacity:1" fill="#c43640" d="M 386.5,285.5 C 386.732,289.457 385.899,293.124 384,296.5C 382.989,297.337 381.822,297.67 380.5,297.5C 382.008,293.151 384.008,289.151 386.5,285.5 Z"/></g>
<g><path style="opacity:1" fill="#710e0f" d="M 162.5,124.5 C 163.736,126.611 165.236,128.611 167,130.5C 172.144,144.114 177.811,157.447 184,170.5C 186.036,172.592 187.536,174.926 188.5,177.5C 188.343,178.873 188.51,180.207 189,181.5C 190.924,183.009 192.091,185.009 192.5,187.5C 193.325,188.386 194.325,188.719 195.5,188.5C 195.34,190.199 195.506,191.866 196,193.5C 200.461,201.427 204.127,209.76 207,218.5C 207.71,219.973 208.876,220.64 210.5,220.5C 210.547,223.969 211.213,227.302 212.5,230.5C 213.347,235.888 214.513,241.221 216,246.5C 218.582,247.284 220.249,248.951 221,251.5C 221.187,255.71 222.02,259.71 223.5,263.5C 223.379,264.894 223.046,266.228 222.5,267.5C 224.437,268.158 226.27,268.491 228,268.5C 229.536,273.237 231.869,277.571 235,281.5C 237.414,288.911 239.914,296.244 242.5,303.5C 243.675,303.281 244.675,303.614 245.5,304.5C 245.957,306.598 246.957,308.264 248.5,309.5C 248.5,310.833 248.5,312.167 248.5,313.5C 247.501,407.332 247.167,501.332 247.5,595.5C 230.631,595.071 213.964,595.738 197.5,597.5C 196.5,597.5 195.5,597.5 194.5,597.5C 183.57,597.204 172.903,598.204 162.5,600.5C 161.833,600.5 161.167,600.5 160.5,600.5C 153.5,600.5 146.5,600.5 139.5,600.5C 149.801,599.777 160.134,598.277 170.5,596C 183.816,594.994 197.149,594.494 210.5,594.5C 222.218,594.812 233.884,594.479 245.5,593.5C 246.832,527.668 246.832,462.001 245.5,396.5C 244.252,395.666 243.585,394.333 243.5,392.5C 242.836,388.524 242.503,384.524 242.5,380.5C 241.127,380.657 239.793,380.49 238.5,380C 239.654,379.086 239.487,378.253 238,377.5C 236.308,367.778 234.308,358.112 232,348.5C 229.147,342.454 227.147,336.121 226,329.5C 220.795,319.34 217.129,308.674 215,297.5C 212.331,291.474 209.665,285.474 207,279.5C 205.024,278.457 204.524,277.123 205.5,275.5C 204.148,271.739 202.648,268.072 201,264.5C 198.434,252.788 195.434,241.121 192,229.5C 190.415,228.624 189.415,227.291 189,225.5C 187.078,218.559 185.244,211.559 183.5,204.5C 181.833,204.5 180.167,204.5 178.5,204.5C 178.662,202.473 178.495,200.473 178,198.5C 174.59,194.775 172.59,190.441 172,185.5C 165.899,174.575 162.566,163.242 162,151.5C 159.654,147.809 158.154,143.809 157.5,139.5C 156.765,133.758 155.598,128.091 154,122.5C 151.226,115.908 148.726,109.241 146.5,102.5C 146.667,101.5 146.833,100.5 147,99.5C 148.45,102.008 149.617,104.675 150.5,107.5C 151.5,108.167 152.5,108.833 153.5,109.5C 155.091,113.266 156.924,116.933 159,120.5C 159.49,121.793 159.657,123.127 159.5,124.5C 160.5,124.5 161.5,124.5 162.5,124.5 Z"/></g>
<g><path style="opacity:1" fill="#bf444c" d="M 380.5,297.5 C 380.259,301.803 379.092,305.803 377,309.5C 376.329,310.252 375.496,310.586 374.5,310.5C 375.751,305.715 377.751,301.381 380.5,297.5 Z"/></g>
<g><path style="opacity:1" fill="#ce7172" d="M 250.5,311.5 C 251.5,311.5 252.5,311.5 253.5,311.5C 253.5,313.167 253.5,314.833 253.5,316.5C 252.263,315.035 251.263,313.368 250.5,311.5 Z"/></g>
<g><path style="opacity:1" fill="#c14145" d="M 340.5,295.5 C 345.677,305.19 350.343,315.19 354.5,325.5C 353.265,325.279 352.265,324.612 351.5,323.5C 350.449,319.731 348.616,316.398 346,313.5C 345.667,311.833 345.333,310.167 345,308.5C 341.239,304.973 339.739,300.639 340.5,295.5 Z"/></g>
<g><path style="opacity:1" fill="#cb7172" d="M 467.5,316.5 C 466.352,320.787 464.685,324.787 462.5,328.5C 462.969,323.908 464.635,319.908 467.5,316.5 Z"/></g>
<g><path style="opacity:1" fill="#bd3e41" d="M 374.5,310.5 C 372.578,316.01 371.078,321.676 370,327.5C 367.493,329.189 365.993,331.522 365.5,334.5C 364.675,335.386 363.675,335.719 362.5,335.5C 365.745,326.744 369.745,318.41 374.5,310.5 Z"/></g>
<g><path style="opacity:1" fill="#cb6c6b" d="M 462.5,328.5 C 460.341,334.151 457.674,339.484 454.5,344.5C 454.873,341.426 455.539,338.426 456.5,335.5C 456.833,335.5 457.167,335.5 457.5,335.5C 458.927,333.852 459.76,331.852 460,329.5C 460.671,328.748 461.504,328.414 462.5,328.5 Z"/></g>
<g><path style="opacity:1" fill="#c73e40" d="M 354.5,325.5 C 356.417,328.717 358.251,332.051 360,335.5C 360.77,336.598 361.603,336.598 362.5,335.5C 362.428,337.311 361.595,338.644 360,339.5C 358.826,338.456 357.659,337.456 356.5,336.5C 355.674,332.864 355.008,329.197 354.5,325.5 Z"/></g>
<g><path style="opacity:0.502" fill="#c4999c" d="M 248.5,308.5 C 249.833,308.5 250.5,309.167 250.5,310.5C 249.833,340.167 249.167,369.833 248.5,399.5C 248.5,370.833 248.5,342.167 248.5,313.5C 248.5,312.167 248.5,310.833 248.5,309.5C 248.5,309.167 248.5,308.833 248.5,308.5 Z"/></g>
<g><path style="opacity:1" fill="#c13438" d="M 253.5,316.5 C 254.167,316.5 254.833,316.5 255.5,316.5C 257.167,319.824 259.334,322.824 262,325.5C 262.91,330.296 264.243,334.963 266,339.5C 267.699,340.406 269.533,340.739 271.5,340.5C 271.5,341.833 271.5,343.167 271.5,344.5C 270.402,345.601 270.235,346.934 271,348.5C 273.175,353.525 275.841,358.191 279,362.5C 279.401,365.699 280.234,368.699 281.5,371.5C 280.609,370.89 279.609,370.557 278.5,370.5C 278.5,370.167 278.5,369.833 278.5,369.5C 277.135,363.335 274.469,358.002 270.5,353.5C 264.641,341.256 258.974,328.923 253.5,316.5 Z"/></g>
<g><path style="opacity:1" fill="#c3262a" d="M 456.5,335.5 C 455.539,338.426 454.873,341.426 454.5,344.5C 453.361,347.918 452.028,351.251 450.5,354.5C 449.504,354.414 448.671,354.748 448,355.5C 446.39,357.939 445.556,360.606 445.5,363.5C 444.773,365.954 443.773,368.287 442.5,370.5C 440.386,371.784 439.386,373.784 439.5,376.5C 439.5,377.167 439.167,377.5 438.5,377.5C 437.167,378.5 435.833,379.5 434.5,380.5C 435.605,378.287 435.605,376.12 434.5,374C 435.793,373.51 437.127,373.343 438.5,373.5C 438.5,370.5 438.5,367.5 438.5,364.5C 439.833,364.5 441.167,364.5 442.5,364.5C 441.883,360.505 443.049,357.172 446,354.5C 446.161,349.742 448.327,346.409 452.5,344.5C 453.007,340.998 454.34,337.998 456.5,335.5 Z"/></g>
<g><path style="opacity:0.502" fill="#d98487" d="M 270.5,353.5 C 274.469,358.002 277.135,363.335 278.5,369.5C 275.323,364.48 272.657,359.146 270.5,353.5 Z"/></g>
<g><path style="opacity:1" fill="#c45b6e" d="M 450.5,354.5 C 449.071,357.696 447.405,360.696 445.5,363.5C 445.556,360.606 446.39,357.939 448,355.5C 448.671,354.748 449.504,354.414 450.5,354.5 Z"/></g>
<g><path style="opacity:0.502" fill="#db8d8f" d="M 442.5,370.5 C 441.87,372.75 440.87,374.75 439.5,376.5C 439.386,373.784 440.386,371.784 442.5,370.5 Z"/></g>
<g><path style="opacity:1" fill="#d16e73" d="M 278.5,370.5 C 279.609,370.557 280.609,370.89 281.5,371.5C 283.02,375.393 284.353,379.393 285.5,383.5C 282.943,379.392 280.61,375.059 278.5,370.5 Z"/></g>
<g><path style="opacity:1" fill="#d30f1b" d="M 271.5,344.5 C 271.746,347.47 273.412,348.803 276.5,348.5C 276.421,351.271 276.921,353.937 278,356.5C 279.667,357.167 281.333,357.833 283,358.5C 283.537,355.813 283.037,353.313 281.5,351C 282.09,349.491 282.756,347.991 283.5,346.5C 284.5,347.167 285.5,347.833 286.5,348.5C 287.612,353.829 287.612,359.162 286.5,364.5C 290.226,364.177 293.893,364.511 297.5,365.5C 298.374,367.747 298.708,370.08 298.5,372.5C 303.833,372.5 309.167,372.5 314.5,372.5C 314.5,377.833 314.5,383.167 314.5,388.5C 317.167,388.5 319.833,388.5 322.5,388.5C 322.5,391.167 322.5,393.833 322.5,396.5C 327.833,396.5 333.167,396.5 338.5,396.5C 338.5,407.167 338.5,417.833 338.5,428.5C 343.833,428.5 349.167,428.5 354.5,428.5C 354.5,433.833 354.5,439.167 354.5,444.5C 365.167,444.5 375.833,444.5 386.5,444.5C 386.5,439.167 386.5,433.833 386.5,428.5C 389.167,428.5 391.833,428.5 394.5,428.5C 395.037,433.315 395.037,437.982 394.5,442.5C 393.325,442.281 392.325,442.614 391.5,443.5C 389.861,446.803 387.528,449.47 384.5,451.5C 382.604,452.466 380.604,452.799 378.5,452.5C 378.666,459.508 378.5,466.508 378,473.5C 375.638,474.352 373.805,475.852 372.5,478C 374.191,479.405 376.024,480.572 378,481.5C 379.269,480.095 379.769,478.429 379.5,476.5C 381.167,476.5 382.833,476.5 384.5,476.5C 384.649,477.552 384.483,478.552 384,479.5C 382.649,479.446 381.482,479.946 380.5,481C 378.5,485.333 376.5,489.667 374.5,494C 374.63,495.059 375.13,495.892 376,496.5C 376.498,494.456 377.665,493.122 379.5,492.5C 377.119,498.948 375.119,505.615 373.5,512.5C 371.408,512.561 369.908,513.561 369,515.5C 366.611,519.941 364.777,524.608 363.5,529.5C 362.609,530.59 361.609,530.59 360.5,529.5C 359.833,530.5 359.167,531.5 358.5,532.5C 358.401,529.879 358.067,527.212 357.5,524.5C 356.833,525.5 356.167,526.5 355.5,527.5C 352.995,523.496 351.162,519.163 350,514.5C 348.45,513.409 347.283,512.076 346.5,510.5C 345.25,507.933 344.083,505.267 343,502.5C 342.329,501.748 341.496,501.414 340.5,501.5C 340.167,500.833 339.833,500.167 339.5,499.5C 340.103,497.374 340.103,495.041 339.5,492.5C 338.325,492.719 337.325,492.386 336.5,491.5C 336.058,490.261 335.391,489.261 334.5,488.5C 333.662,488.158 333.328,487.492 333.5,486.5C 332.561,483.197 331.561,479.864 330.5,476.5C 330.499,472.679 329.499,469.179 327.5,466C 327.625,464.373 328.125,462.873 329,461.5C 329.654,462.696 330.154,462.696 330.5,461.5C 328.314,460.779 326.147,460.113 324,459.5C 322.48,455.729 320.814,452.062 319,448.5C 319.962,444.613 320.295,440.613 320,436.5C 319.333,434.5 318,433.167 316,432.5C 315.489,430.122 314.822,427.788 314,425.5C 313.779,428.943 312.779,429.276 311,426.5C 310.64,424.392 309.973,422.392 309,420.5C 307.853,421.458 306.853,421.125 306,419.5C 306.336,415.856 304.836,413.523 301.5,412.5C 300.503,412.53 299.836,412.03 299.5,411C 297.714,403.955 295.047,397.455 291.5,391.5C 290.5,391.5 289.5,391.5 288.5,391.5C 286.94,389.046 285.94,386.38 285.5,383.5C 284.353,379.393 283.02,375.393 281.5,371.5C 280.234,368.699 279.401,365.699 279,362.5C 275.841,358.191 273.175,353.525 271,348.5C 270.235,346.934 270.402,345.601 271.5,344.5 Z"/></g>
<g><path style="opacity:1" fill="#c36262" d="M 438.5,377.5 C 437.958,380.912 436.625,383.912 434.5,386.5C 434.5,384.5 434.5,382.5 434.5,380.5C 435.833,379.5 437.167,378.5 438.5,377.5 Z"/></g>
<g><path style="opacity:1" fill="#c5565c" d="M 433.5,388.5 C 431.678,394.136 429.345,399.469 426.5,404.5C 428.239,399.671 429.405,394.671 430,389.5C 431.011,388.663 432.178,388.33 433.5,388.5 Z"/></g>
<g><path style="opacity:1" fill="#c75555" d="M 288.5,391.5 C 289.5,391.5 290.5,391.5 291.5,391.5C 295.047,397.455 297.714,403.955 299.5,411C 299.836,412.03 300.503,412.53 301.5,412.5C 302.5,416.5 303.5,420.5 304.5,424.5C 298.912,413.656 293.579,402.656 288.5,391.5 Z"/></g>
<g><path style="opacity:1" fill="#d78b8f" d="M 426.5,404.5 C 426.008,406.819 425.008,408.819 423.5,410.5C 423.386,407.784 424.386,405.784 426.5,404.5 Z"/></g>
<g><path style="opacity:1" fill="#c96064" d="M 423.5,410.5 C 421.341,416.151 418.674,421.484 415.5,426.5C 416.521,422.111 417.854,417.778 419.5,413.5C 420.588,412.066 421.922,411.066 423.5,410.5 Z"/></g>
<g><path style="opacity:1" fill="#731e1d" d="M 134.5,67.5 C 135.167,67.5 135.833,67.5 136.5,67.5C 136.5,67.8333 136.5,68.1667 136.5,68.5C 135.167,245.334 135.167,422.334 136.5,599.5C 137.417,600.127 138.417,600.461 139.5,600.5C 139.833,601.167 140.167,601.833 140.5,602.5C 138.565,603.15 136.565,603.483 134.5,603.5C 134.5,424.833 134.5,246.167 134.5,67.5 Z"/></g>
<g><path style="opacity:1" fill="#c65455" d="M 304.5,425.5 C 306.624,426.031 308.124,427.365 309,429.5C 311.409,433.892 312.909,438.558 313.5,443.5C 310.13,437.749 307.13,431.749 304.5,425.5 Z"/></g>
<g><path style="opacity:1" fill="#cd7676" d="M 415.5,426.5 C 411.666,436.162 407.333,445.496 402.5,454.5C 402.34,452.801 402.506,451.134 403,449.5C 406.655,441.52 410.822,433.854 415.5,426.5 Z"/></g>
<g><path style="opacity:1" fill="#c91621" d="M 301.5,412.5 C 304.836,413.523 306.336,415.856 306,419.5C 306.853,421.125 307.853,421.458 309,420.5C 309.973,422.392 310.64,424.392 311,426.5C 312.779,429.276 313.779,428.943 314,425.5C 314.822,427.788 315.489,430.122 316,432.5C 318,433.167 319.333,434.5 320,436.5C 320.295,440.613 319.962,444.613 319,448.5C 320.814,452.062 322.48,455.729 324,459.5C 326.147,460.113 328.314,460.779 330.5,461.5C 330.154,462.696 329.654,462.696 329,461.5C 328.125,462.873 327.625,464.373 327.5,466C 329.499,469.179 330.499,472.679 330.5,476.5C 329.833,476.167 329.167,475.833 328.5,475.5C 327.326,474.486 326.66,473.153 326.5,471.5C 325.637,466.547 323.637,462.214 320.5,458.5C 320.662,456.473 320.495,454.473 320,452.5C 319.667,452.833 319.333,453.167 319,453.5C 318.166,450.828 317.332,448.161 316.5,445.5C 315.675,444.614 314.675,444.281 313.5,444.5C 313.5,444.167 313.5,443.833 313.5,443.5C 312.909,438.558 311.409,433.892 309,429.5C 308.124,427.365 306.624,426.031 304.5,425.5C 304.5,425.167 304.5,424.833 304.5,424.5C 303.5,420.5 302.5,416.5 301.5,412.5 Z"/></g>
<g><path style="opacity:1" fill="#cb6b6a" d="M 313.5,444.5 C 314.675,444.281 315.675,444.614 316.5,445.5C 317.332,448.161 318.166,450.828 319,453.5C 319.333,453.167 319.667,452.833 320,452.5C 320.495,454.473 320.662,456.473 320.5,458.5C 317.657,454.147 315.323,449.48 313.5,444.5 Z"/></g>
<g><path style="opacity:1" fill="#c77579" d="M 402.5,454.5 C 401.674,457.485 400.341,460.151 398.5,462.5C 398.292,458.915 399.625,456.249 402.5,454.5 Z"/></g>
<g><path style="opacity:1" fill="#70181a" d="M 474.5,396.5 C 473.335,460.332 473.168,524.332 474,588.5C 475.122,590.42 475.956,592.42 476.5,594.5C 490.171,594.333 503.837,594.5 517.5,595C 527.402,595.414 537.069,596.58 546.5,598.5C 543.167,598.5 539.833,598.5 536.5,598.5C 536.167,598.5 535.833,598.5 535.5,598.5C 528.715,597.087 521.715,596.254 514.5,596C 500.504,595.5 486.504,595.333 472.5,595.5C 472.5,500.5 472.5,405.5 472.5,310.5C 473.785,309.215 475.119,307.881 476.5,306.5C 477.853,307.685 479.02,309.019 480,310.5C 480.5,317.826 480.666,325.159 480.5,332.5C 479.167,332.5 477.833,332.5 476.5,332.5C 476.212,326.771 476.546,321.104 477.5,315.5C 476.855,314.354 476.022,313.354 475,312.5C 474.5,340.498 474.333,368.498 474.5,396.5 Z"/></g>
<g><path style="opacity:0.502" fill="#da7d7d" d="M 320.5,458.5 C 323.637,462.214 325.637,466.547 326.5,471.5C 323.733,467.536 321.733,463.203 320.5,458.5 Z"/></g>
<g><path style="opacity:1" fill="#c66d6d" d="M 398.5,462.5 C 395.221,470.665 391.555,478.665 387.5,486.5C 388.917,480.692 390.583,475.026 392.5,469.5C 394.338,467.215 395.838,464.548 397,461.5C 397.383,462.056 397.883,462.389 398.5,462.5 Z"/></g>
<g><path style="opacity:1" fill="#c0202a" d="M 392.5,469.5 C 390.583,475.026 388.917,480.692 387.5,486.5C 386.417,486.539 385.417,486.873 384.5,487.5C 381.382,493.518 379.049,499.852 377.5,506.5C 377.396,508.703 376.73,510.703 375.5,512.5C 374.833,512.5 374.167,512.5 373.5,512.5C 375.119,505.615 377.119,498.948 379.5,492.5C 381.312,488.254 383.812,484.254 387,480.5C 386.38,475.504 388.213,471.837 392.5,469.5 Z"/></g>
<g><path style="opacity:1" fill="#d47b80" d="M 328.5,475.5 C 329.167,475.833 329.833,476.167 330.5,476.5C 331.561,479.864 332.561,483.197 333.5,486.5C 331.043,483.249 329.376,479.582 328.5,475.5 Z"/></g>
<g><path style="opacity:1" fill="#ca5a57" d="M 334.5,488.5 C 335.391,489.261 336.058,490.261 336.5,491.5C 337.325,492.386 338.325,492.719 339.5,492.5C 340.103,495.041 340.103,497.374 339.5,499.5C 337.043,496.249 335.376,492.582 334.5,488.5 Z"/></g>
<g><path style="opacity:1" fill="#cc6c6f" d="M 387.5,486.5 C 384.682,493.469 381.349,500.136 377.5,506.5C 379.049,499.852 381.382,493.518 384.5,487.5C 385.417,486.873 386.417,486.539 387.5,486.5 Z"/></g>
<g><path style="opacity:0.502" fill="#b9807f" d="M 134.5,66.5 C 134.5,66.8333 134.5,67.1667 134.5,67.5C 134.5,246.167 134.5,424.833 134.5,603.5C 136.565,603.483 138.565,603.15 140.5,602.5C 142.167,602.5 143.833,602.5 145.5,602.5C 141.252,604.606 136.919,604.772 132.5,603C 133.166,424.069 133.833,245.236 134.5,66.5 Z"/></g>
<g><path style="opacity:1" fill="#85141b" d="M 245.5,396.5 C 246.832,462.001 246.832,527.668 245.5,593.5C 233.884,594.479 222.218,594.812 210.5,594.5C 220.992,593.67 231.659,593.17 242.5,593C 243.849,592.228 244.682,591.061 245,589.5C 245.5,546.501 245.667,503.501 245.5,460.5C 245.5,439.167 245.5,417.833 245.5,396.5 Z"/></g>
<g><path style="opacity:1" fill="#c75758" d="M 340.5,501.5 C 341.496,501.414 342.329,501.748 343,502.5C 344.083,505.267 345.25,507.933 346.5,510.5C 346.5,511.833 346.5,513.167 346.5,514.5C 343.751,510.619 341.751,506.285 340.5,501.5 Z"/></g>
<g><path style="opacity:1" fill="#d88a8d" d="M 373.5,512.5 C 374.167,512.5 374.833,512.5 375.5,512.5C 374.592,515.987 372.926,518.987 370.5,521.5C 371.213,518.406 372.213,515.406 373.5,512.5 Z"/></g>
<g><path style="opacity:0.502" fill="#d88a8b" d="M 347.5,517.5 C 350.822,521.476 353.155,526.143 354.5,531.5C 351.672,527.178 349.339,522.511 347.5,517.5 Z"/></g>
<g><path style="opacity:1" fill="#8a1113" d="M 136.5,68.5 C 137.148,73.808 139.482,78.1414 143.5,81.5C 144.791,88.7478 147.791,95.0811 152.5,100.5C 155.536,108.667 158.869,116.667 162.5,124.5C 161.5,124.5 160.5,124.5 159.5,124.5C 159.657,123.127 159.49,121.793 159,120.5C 156.924,116.933 155.091,113.266 153.5,109.5C 152.5,108.833 151.5,108.167 150.5,107.5C 149.617,104.675 148.45,102.008 147,99.5C 146.833,100.5 146.667,101.5 146.5,102.5C 148.726,109.241 151.226,115.908 154,122.5C 155.598,128.091 156.765,133.758 157.5,139.5C 153.98,131.901 151.147,123.901 149,115.5C 148.29,114.027 147.124,113.36 145.5,113.5C 144.792,120.99 144.125,128.656 143.5,136.5C 144.503,148.489 144.503,160.489 143.5,172.5C 143.67,179.23 144.337,185.897 145.5,192.5C 145.131,219.316 144.131,246.15 142.5,273C 143.204,344.831 143.871,416.664 144.5,488.5C 143.912,519.491 144.079,550.491 145,581.5C 145.333,583.167 145.667,584.833 146,586.5C 146.499,581.845 146.666,577.179 146.5,572.5C 162.5,572.5 178.5,572.5 194.5,572.5C 194.5,577.5 194.5,582.5 194.5,587.5C 197.167,587.5 199.833,587.5 202.5,587.5C 202.5,586.167 202.5,584.833 202.5,583.5C 205.167,583.5 207.833,583.5 210.5,583.5C 210.201,585.604 210.534,587.604 211.5,589.5C 213.747,588.626 216.08,588.292 218.5,588.5C 218.5,585.833 218.5,583.167 218.5,580.5C 214.833,580.5 211.167,580.5 207.5,580.5C 207.5,577.833 207.5,575.167 207.5,572.5C 208.5,572.5 209.5,572.5 210.5,572.5C 210.5,569.833 210.5,567.167 210.5,564.5C 207.833,564.5 205.167,564.5 202.5,564.5C 202.5,565.5 202.5,566.5 202.5,567.5C 199.833,567.5 197.167,567.5 194.5,567.5C 194.5,561.167 194.5,554.833 194.5,548.5C 199.833,548.5 205.167,548.5 210.5,548.5C 210.5,545.833 210.5,543.167 210.5,540.5C 215.833,540.5 221.167,540.5 226.5,540.5C 226.5,537.833 226.5,535.167 226.5,532.5C 230.167,532.5 233.833,532.5 237.5,532.5C 237.5,529.833 237.5,527.167 237.5,524.5C 238.5,524.5 239.5,524.5 240.5,524.5C 240.833,529.833 241.167,535.167 241.5,540.5C 242.5,540.5 243.5,540.5 244.5,540.5C 244.7,524.483 244.366,508.483 243.5,492.5C 237.833,492.5 232.167,492.5 226.5,492.5C 226.5,487.167 226.5,481.833 226.5,476.5C 215.833,476.5 205.167,476.5 194.5,476.5C 194.5,471.167 194.5,465.833 194.5,460.5C 205.167,460.5 215.833,460.5 226.5,460.5C 226.5,457.833 226.5,455.167 226.5,452.5C 231.5,452.5 236.5,452.5 241.5,452.5C 242,460.495 242.5,468.495 243,476.5C 242.878,470.74 243.711,465.407 245.5,460.5C 245.667,503.501 245.5,546.501 245,589.5C 244.682,591.061 243.849,592.228 242.5,593C 231.659,593.17 220.992,593.67 210.5,594.5C 197.149,594.494 183.816,594.994 170.5,596C 160.134,598.277 149.801,599.777 139.5,600.5C 138.417,600.461 137.417,600.127 136.5,599.5C 135.167,422.334 135.167,245.334 136.5,68.5 Z"/></g>
<g><path style="opacity:1" fill="#8d0f10" d="M 137.5,105.5 C 138.268,106.263 138.768,107.263 139,108.5C 139.666,117.825 140.166,127.158 140.5,136.5C 139.831,165.817 139.831,195.15 140.5,224.5C 140.164,239.188 139.497,253.854 138.5,268.5C 139.5,268.5 140.5,268.5 141.5,268.5C 141.872,275.309 141.205,281.975 139.5,288.5C 140.02,319.094 140.354,349.76 140.5,380.5C 140.416,404.529 139.75,428.529 138.5,452.5C 139.61,463.134 140.277,473.801 140.5,484.5C 140.083,519.155 140.083,553.822 140.5,588.5C 139.167,588.5 137.833,588.5 136.5,588.5C 136.219,427.497 136.552,266.497 137.5,105.5 Z"/></g>
<g><path style="opacity:1" fill="#bf1f28" d="M 346.5,510.5 C 347.283,512.076 348.45,513.409 350,514.5C 351.162,519.163 352.995,523.496 355.5,527.5C 356.167,526.5 356.833,525.5 357.5,524.5C 358.067,527.212 358.401,529.879 358.5,532.5C 359.167,531.5 359.833,530.5 360.5,529.5C 361.609,530.59 362.609,530.59 363.5,529.5C 364.777,524.608 366.611,519.941 369,515.5C 369.908,513.561 371.408,512.561 373.5,512.5C 372.213,515.406 371.213,518.406 370.5,521.5C 370.5,521.833 370.5,522.167 370.5,522.5C 369.265,522.721 368.265,523.388 367.5,524.5C 365.916,529.647 363.583,534.313 360.5,538.5C 358.437,536.758 356.437,535.091 354.5,533.5C 354.5,532.833 354.5,532.167 354.5,531.5C 353.155,526.143 350.822,521.476 347.5,517.5C 346.89,516.609 346.557,515.609 346.5,514.5C 346.5,513.167 346.5,511.833 346.5,510.5 Z"/></g>
<g><path style="opacity:0.502" fill="#b17979" d="M 472.5,308.5 C 472.5,309.167 472.5,309.833 472.5,310.5C 472.5,405.5 472.5,500.5 472.5,595.5C 471.833,500.5 471.167,405.5 470.5,310.5C 470.833,309.5 471.5,308.833 472.5,308.5 Z"/></g>
<g><path style="opacity:0.502" fill="#c38f94" d="M 586.5,346.5 C 587.499,432.332 587.833,518.332 587.5,604.5C 584.615,604.806 581.948,604.473 579.5,603.5C 581.833,603.5 584.167,603.5 586.5,603.5C 586.5,517.833 586.5,432.167 586.5,346.5 Z"/></g>
<g><path style="opacity:1" fill="#be6765" d="M 370.5,522.5 C 367.554,528.724 364.887,535.058 362.5,541.5C 361.127,541.657 359.793,541.49 358.5,541C 356.885,538.658 355.551,536.158 354.5,533.5C 356.437,535.091 358.437,536.758 360.5,538.5C 363.583,534.313 365.916,529.647 367.5,524.5C 368.265,523.388 369.265,522.721 370.5,522.5 Z"/></g>
<g><path style="opacity:1" fill="#7f3535" d="M 585.5,67.5 C 585.833,67.5 586.167,67.5 586.5,67.5C 586.5,160.5 586.5,253.5 586.5,346.5C 586.5,432.167 586.5,517.833 586.5,603.5C 584.167,603.5 581.833,603.5 579.5,603.5C 573.798,603.079 568.131,602.412 562.5,601.5C 562.5,601.167 562.5,600.833 562.5,600.5C 570.167,600.5 577.833,600.5 585.5,600.5C 585.5,422.833 585.5,245.167 585.5,67.5 Z"/></g>
<g><path style="opacity:1" fill="#891112" d="M 582.5,68.5 C 583.833,156.497 584.5,244.831 584.5,333.5C 584.333,421.833 584.167,510.167 584,598.5C 574.228,599.601 564.395,599.601 554.5,598.5C 551.833,598.5 549.167,598.5 546.5,598.5C 537.069,596.58 527.402,595.414 517.5,595C 503.837,594.5 490.171,594.333 476.5,594.5C 475.956,592.42 475.122,590.42 474,588.5C 473.168,524.332 473.335,460.332 474.5,396.5C 475.833,396.5 477.167,396.5 478.5,396.5C 479.706,387.38 481.373,378.38 483.5,369.5C 482.167,366.504 483.167,364.837 486.5,364.5C 487.81,359.257 488.476,353.923 488.5,348.5C 489.5,348.5 490.5,348.5 491.5,348.5C 492.239,343.18 492.906,337.846 493.5,332.5C 494.5,332.5 495.5,332.5 496.5,332.5C 497.795,327.048 498.795,321.548 499.5,316C 499.167,315.667 498.833,315.333 498.5,315C 502.055,310.835 503.722,306.002 503.5,300.5C 504.5,300.5 505.5,300.5 506.5,300.5C 505.732,304.975 505.066,309.475 504.5,314C 504.248,317.496 504.915,319.996 506.5,321.5C 506.22,324.711 504.72,325.711 502,324.5C 501,325.5 500,326.5 499,327.5C 499.086,332.096 497.92,336.263 495.5,340C 496.291,342.75 496.291,345.583 495.5,348.5C 496.5,348.5 497.5,348.5 498.5,348.5C 498.5,351.167 498.5,353.833 498.5,356.5C 497.167,356.5 495.833,356.5 494.5,356.5C 494.429,359.742 493.429,362.575 491.5,365C 492.081,365.893 492.415,366.893 492.5,368C 490.865,372.01 490.198,376.177 490.5,380.5C 488.833,380.5 487.167,380.5 485.5,380.5C 485.762,379.022 485.429,377.689 484.5,376.5C 483.813,378.274 482.98,379.941 482,381.5C 480.618,397.128 480.118,412.794 480.5,428.5C 479.5,428.5 478.5,428.5 477.5,428.5C 477.411,420.183 477.411,412.016 477.5,404C 476,400.989 475.166,401.489 475,405.5C 474.167,450.504 474.333,495.504 475.5,540.5C 475.932,532.446 476.599,527.113 477.5,524.5C 478.5,524.5 479.5,524.5 480.5,524.5C 480.5,529.833 480.5,535.167 480.5,540.5C 497.167,540.5 513.833,540.5 530.5,540.5C 530.5,545.833 530.5,551.167 530.5,556.5C 535.833,556.5 541.167,556.5 546.5,556.5C 546.5,561.833 546.5,567.167 546.5,572.5C 556.5,572.5 566.5,572.5 576.5,572.5C 578.583,537.846 579.25,503.179 578.5,468.5C 575.833,468.5 573.167,468.5 570.5,468.5C 570.5,473.833 570.5,479.167 570.5,484.5C 567.833,484.5 565.167,484.5 562.5,484.5C 562.5,476.5 562.5,468.5 562.5,460.5C 567.833,460.5 573.167,460.5 578.5,460.5C 579,452.505 579.5,444.505 580,436.5C 581.4,479.157 582.4,521.824 583,564.5C 583.5,412.5 583.667,260.5 583.5,108.5C 581.833,108.5 580.167,108.5 578.5,108.5C 578.785,106.712 578.452,105.045 577.5,103.5C 576.817,103.863 576.15,104.196 575.5,104.5C 577.143,100.7 577.81,96.6995 577.5,92.5C 578.5,92.5 579.5,92.5 580.5,92.5C 581.016,87.7709 581.016,83.1043 580.5,78.5C 579.642,84.0259 577.308,88.6925 573.5,92.5C 575.36,86.795 577.193,81.1283 579,75.5C 580.802,74.2107 581.969,72.5441 582.5,70.5C 582.5,69.8333 582.5,69.1667 582.5,68.5 Z"/></g>
<g><path style="opacity:0.502" fill="#a56c6f" d="M 248.5,313.5 C 248.5,342.167 248.5,370.833 248.5,399.5C 248.427,464.973 248.76,530.14 249.5,595C 232.322,596.572 214.988,597.405 197.5,597.5C 213.964,595.738 230.631,595.071 247.5,595.5C 247.167,501.332 247.501,407.332 248.5,313.5 Z"/></g>
<g><path style="opacity:1" fill="#a06666" d="M 472.5,595.5 C 486.504,595.333 500.504,595.5 514.5,596C 521.715,596.254 528.715,597.087 535.5,598.5C 528.123,597.704 520.79,597.704 513.5,598.5C 499.752,596.973 486.085,595.973 472.5,595.5 Z"/></g>
<g><path style="opacity:0.502" fill="#b28182" d="M 194.5,597.5 C 184.031,599.068 173.364,600.068 162.5,600.5C 172.903,598.204 183.57,597.204 194.5,597.5 Z"/></g>
<g><path style="opacity:0.004" fill="#fefffe" d="M 199.5,599.5 C 199.897,598.475 200.563,598.308 201.5,599C 200.906,599.464 200.239,599.631 199.5,599.5 Z"/></g>
<g><path style="opacity:1" fill="#a26263" d="M 536.5,598.5 C 539.833,598.5 543.167,598.5 546.5,598.5C 549.167,598.5 551.833,598.5 554.5,598.5C 556.961,599.531 559.627,600.198 562.5,600.5C 562.5,600.833 562.5,601.167 562.5,601.5C 560.131,601.851 557.797,602.018 555.5,602C 556.167,601.667 556.833,601.333 557.5,601C 550.331,600.325 543.331,599.491 536.5,598.5 Z"/></g>
<g><path style="opacity:1" fill="#874744" d="M 139.5,600.5 C 146.5,600.5 153.5,600.5 160.5,600.5C 155.71,601.725 150.71,602.392 145.5,602.5C 143.833,602.5 142.167,602.5 140.5,602.5C 140.167,601.833 139.833,601.167 139.5,600.5 Z"/></g>
</svg>
